
        <svg xmlns="http://www.w3.org/2000/svg" xmlns:xlink="http://www.w3.org/1999/xlink" version="1.1" width="3154.639175257732" height="959.5359523407238" viewBox="0 0 3154.639175257732 959.5359523407238">
			
			<g transform="scale(7.731958762886598) translate(10, 10)">
				<defs id="SvgjsDefs1034"/><g id="SvgjsG1035" featureKey="Rs8Ttr-0" transform="matrix(0.8615304930933021,0,0,0.8615304930933021,-3.299662133627539,9.567425218657599)" fill="#000"><path xmlns="http://www.w3.org/2000/svg" d="M64.654,28.808c-7.819-10.814-22.923-13.242-33.738-5.423c-10.814,7.819-13.242,22.925-5.423,33.739  c6.923,9.576,19.558,12.57,29.87,7.704c-0.114,0.373-0.062,0.793,0.185,1.137c0.421,0.579,1.229,0.709,1.81,0.29l17.666,26.645  c0.608,0.841,2.909,0.214,5.143-1.4c2.232-1.613,3.549-3.604,2.94-4.444L63.341,61.93c0.579-0.419,0.71-1.23,0.289-1.811  c-0.245-0.343-0.629-0.522-1.02-0.532C70.462,51.319,71.579,38.384,64.654,28.808z M57.623,60.322  c-9.586,6.931-22.975,4.779-29.906-4.808c-6.931-9.584-4.778-22.974,4.807-29.904c9.586-6.932,22.975-4.779,29.905,4.807  C69.361,40.003,67.209,53.392,57.623,60.322z M96.688,20.167l-1.02-1.201l-6.059,5.143c-0.693-0.636-1.609-1.033-2.625-1.033  c-0.841,0-1.614,0.272-2.252,0.726L70.206,10.652c0.224-0.491,0.355-1.033,0.355-1.608c0-2.154-1.746-3.899-3.899-3.899  s-3.898,1.746-3.898,3.899c0,1.087,0.447,2.069,1.165,2.776l-6.252,9.332l1.31,0.876l6.268-9.358c0.438,0.17,0.91,0.272,1.408,0.272  c1.006,0,1.913-0.391,2.605-1.017l14.396,13.031c-0.358,0.59-0.577,1.276-0.577,2.017c0,2.153,1.746,3.899,3.898,3.899  c2.154,0,3.899-1.746,3.899-3.899c0-0.567-0.127-1.103-0.346-1.589L96.688,20.167z M66.662,11.438c-1.322,0-2.394-1.072-2.394-2.394  S65.34,6.65,66.662,6.65s2.394,1.072,2.394,2.394S67.984,11.438,66.662,11.438z M86.984,29.369c-1.321,0-2.393-1.072-2.393-2.394  s1.071-2.394,2.393-2.394c1.322,0,2.395,1.072,2.395,2.394S88.307,29.369,86.984,29.369z M26.995,25.662l-9.555-8.648  c0.367-0.594,0.589-1.289,0.589-2.039c0-2.154-1.746-3.899-3.899-3.899c-2.153,0-3.899,1.746-3.899,3.899  c0,0.628,0.163,1.213,0.426,1.739l-6.827,5.794l1.019,1.2l6.786-5.76c0.678,0.569,1.541,0.925,2.495,0.925  c0.833,0,1.601-0.266,2.234-0.71l9.574,8.666L26.995,25.662z M11.737,14.975c0-1.322,1.071-2.394,2.393-2.394  c1.322,0,2.395,1.072,2.395,2.394c0,1.322-1.072,2.394-2.395,2.394C12.809,17.369,11.737,16.297,11.737,14.975z M55.713,25.668  c-1.19-0.778-2.275-1.228-2.422-1.003l-4.772,7.296c-1.379-0.657-2.917-1.036-4.546-1.036c-2.301,0-4.424,0.741-6.161,1.987  l-5.842-5.385c-0.183-0.169-1.112,0.542-2.076,1.588c-0.964,1.045-1.598,2.03-1.415,2.198h0l5.998,5.529  c-0.697,1.412-1.099,2.995-1.099,4.676c0,5.851,4.743,10.594,10.594,10.594c5.851,0,10.594-4.743,10.594-10.594  c0-2.342-0.77-4.5-2.057-6.253l5.091-7.781v-0.001C57.748,27.26,56.902,26.446,55.713,25.668z M43.973,48.183  c-3.681,0-6.665-2.984-6.665-6.665c0-3.681,2.984-6.665,6.665-6.665s6.665,2.983,6.665,6.665  C50.638,45.199,47.654,48.183,43.973,48.183z"/></g><g id="SvgjsG1036" featureKey="nameFeature-0" transform="matrix(5.212876045363594,0,0,5.212876045363594,97.3940827300016,-30.333726980645572)" fill="#000"><path d="M4.0786 16.5366 c0 0.4471 -0.3643 0.8114 -0.8114 0.8114 l-2.7672 0 l0 -0.43238 l2.7672 0 c0.20792 0 0.37902 -0.16928 0.37902 -0.37902 l0 -10.508 l0.43238 0 l0 10.508 z M4.741 16.4944 c0 0.8427 -0.68446 1.529 -1.5271 1.5271 l-2.7139 0 l0 -0.43238 l2.7139 0 c0.6035 0 1.0948 -0.49128 1.0948 -1.0948 l0 -10.466 l0.43238 0 l0 10.466 z M5.4052 16.6968 c0 1.0892 -0.88686 1.9761 -1.9761 1.9761 l-2.9292 0 l0 -0.43238 l2.9292 0 c0.8519 0 1.5437 -0.69366 1.5437 -1.5437 l0 -10.668 l0.43238 0 l0 10.668 z M6.0676 16.8108 c0 1.3836 -1.126 2.5096 -2.5096 2.5096 l-3.0561 0 l0 -0.43238 l3.0561 0 c1.1444 0 2.0772 -0.931 2.0772 -2.0772 l0 -10.782 l0.43238 0 l0 10.782 z M6.2976 6.029 l0.4324 -0.000019531 l0 10.925 c0 1.6799 -1.3652 3.045 -3.045 3.045 l-3.1831 0 l0 -0.43238 l3.1831 0 c1.4407 0 2.6126 -1.172 2.6126 -2.6126 l0 -10.925 z M13.5708 6.016 l0.46918 0 l-5.8308 13.983 l-0.46918 0 z M14.2386 6.016 l0.46918 0 l-5.8308 13.983 l-0.46734 0 z M14.9084 6.016 l0.46734 0 l-5.8308 13.983 l-0.46734 0 z M15.5762 6.016 l0.46918 0 l-5.8326 13.983 l-0.46734 0 z M22.099 19.99939454 l-5.5714 -13.54 l-0.11959 0.28886 l5.4518 13.251 l-0.46734 0 l-5.2198 -12.688 l-0.11959 0.28886 l5.1022 12.401 l-0.46734 0 l-4.8702 -11.836 l-0.11959 0.28704 l4.7506 11.549 l-0.46734 0 l-4.5188 -10.984 l-0.11959 0.28704 l4.4012 10.695 l-0.46734 0 l-1.0488 -2.5538 l-6.2778 0 l-1.0653 2.5538 l-0.46918 0 l5.8308 -13.983 l0.5667 0 l5.7534 13.983 l-0.46734 0 z M18.047 17.0132 l-0.092012 -0.22448 l-5.7332 0 l-0.093828 0.22448 l5.9191 0 z M17.777 16.3564 l-0.093848 -0.22448 l-5.1886 0 l-0.093828 0.22448 l5.3763 0 z M17.506 15.6994 l-0.093848 -0.22448 l-4.644 0 l-0.093828 0.22448 l4.8317 0 z M17.235799999999998 15.0426 l-0.091992 -0.22448 l-4.1012 0 l-0.093828 0.22448 l4.287 0 z M16.965400000000002 14.3858 l-1.8583 -4.517 l-1.8841 4.517 l3.7424 0 z M31.101599999999998 8.086 c1.3211 1.3192 2.0478 3.0746 2.046 4.942 c0 3.6762 -2.8868 6.725 -6.5116 6.9714 l-0.6127 0 l0 -13.958 l0.43238 0 l0 0.0055273 c1.7553 0.071758 3.3984 0.79118 4.6458 2.0386 z M26.455799999999996 8.993 l0 8.0681 c2.0864 -0.15271 3.748 -1.9172 3.748 -4.0332 c0 -2.1178 -1.6615 -3.8822 -3.748 -4.035 z M26.455799999999996 17.4934 l0 0.19689 c2.4342 -0.15271 4.3772 -2.2006 4.3772 -4.6624 c0 -2.4636 -1.9448 -4.5096 -4.3772 -4.6642 l0 0.19687 c2.3238 0.15271 4.1804 2.114 4.1804 4.4674 c0 2.3514 -1.8565 4.3128 -4.1804 4.4656 z M26.455799999999996 18.122700000000002 l0 0.19687 c2.7782 -0.15455 5.0046 -2.4838 5.0046 -5.2916 s-2.2262 -5.1352 -5.0046 -5.2916 l0 0.19504 c2.6716 0.15455 4.8096 2.3974 4.8096 5.0966 s-2.1398 4.9402 -4.8096 5.0948 z M26.455799999999996 18.7519 l0 0.19506 c3.126 -0.15455 5.6338 -2.7636 5.6338 -5.919 c0 -3.1536 -2.5078 -5.7646 -5.6338 -5.9208 l0 0.19687 c3.0174 0.15639 5.437 2.679 5.437 5.724 s-2.4196 5.5694 -5.437 5.724 z M26.455799999999996 19.57624 c3.472 -0.15639 6.2612 -3.047 6.2612 -6.5484 c0 -1.7516 -0.68262 -3.3984 -1.9209 -4.6366 c-1.1665 -1.1684 -2.701 -1.8418 -4.3404 -1.9135 l0 0.19687 c3.3616 0.15639 6.0644 2.9622 6.0644 6.3532 s-2.701 6.195 -6.0644 6.3514 l0 0.19687 z M25.845 19.9994336 l-0.43238 0 l0 -13.958 l0.43238 0 l0 13.958 z M25.233999999999998 19.9994336 l-0.43238 0 l0 -13.958 l0.43238 0 l0 13.958 z M24.623199999999997 19.9994336 l-0.43238 0 l0 -13.958 l0.43238 0 l0 13.958 z M24.012379999999997 19.9994336 l-0.43238 0 l0 -13.958 l0.43238 0 l0 13.958 z M44.18899999999999 5.819000000000001 l0.43242 0 l0 8.9512 c0 2.885 -2.346 5.231 -5.231 5.231 s-5.231 -2.346 -5.231 -5.231 l0 -8.9512 l0.43238 0 l0 8.9512 c0 2.6458 2.1528 4.7986 4.7986 4.7986 s4.7986 -2.1528 4.7986 -4.7986 l0 -8.9512 z M39.391 19.35172 c-2.5262 0 -4.5832 -2.0552 -4.5832 -4.5814 l0 -8.9512 l0.43238 0 l0 8.9512 c0 2.2888 1.8602 4.1508 4.149 4.1508 s4.1508 -1.862 4.1508 -4.1508 l0 -8.9512 l0.43238 0 l0 8.9512 c0 2.5262 -2.0552 4.5814 -4.5814 4.5814 z M39.391 18.7041 c-2.1692 0 -3.9338 -1.7663 -3.9338 -3.9338 l0 -8.9512 l0.43238 0 l0 8.9512 c0 1.9301 1.5713 3.5014 3.5014 3.5014 s3.5014 -1.5713 3.5014 -3.5014 l0 -8.9512 l0.43238 0 l0 8.9512 c0 2.1692 -1.7645 3.9338 -3.9338 3.9338 z M39.391 18.0546 c-1.8123 0 -3.2862 -1.4738 -3.2862 -3.2842 l0 -8.9512 l0.43238 0 l0 8.9512 c0 1.5731 1.2806 2.8538 2.8538 2.8538 s2.8538 -1.2806 2.8538 -2.8538 l0 -8.9512 l0.43238 0 l0 8.9494 c0 1.8123 -1.4738 3.2862 -3.2862 3.2862 z M39.391 17.407 c-1.4554 0 -2.6384 -1.1831 -2.6384 -2.6366 l0 -8.9512 l0.43238 0 l0 8.9512 c0 1.2162 0.98988 2.206 2.206 2.206 s2.206 -0.98988 2.206 -2.206 l0 -8.9512 l0.43238 0 l0 8.9494 c0 1.4554 -1.1831 2.6384 -2.6384 2.6384 z"/></g><g id="SvgjsG1037" featureKey="7fT3kx-0" transform="matrix(0.6433109204824717,0,0,0.6433109204824717,98.58471594426311,91.01503894862536)" fill="#000"><path d="M4.34 20 l-2.14 0 l0 -14.92 l2.14 0 l0 14.92 z M21.012 7.18 l-1.74 -2.1 l2.82 0 l9.58 11.4 l0 -11.4 l2.2 0 l0 14.92 l-2.16 0 l-8.56 -10.26 l0 10.26 l-2.14 0 l0 -12.82 z M61.20399999999999 7.279999999999999 l-5.26 0 l0 12.72 l-2.12 0 l0 -12.72 l-5.32 0 l0 -2.2 l12.7 0 l0 2.2 z M78.01599999999999 14.02 l0 3.8 l9.2 0 l0 2.18 l-11.38 0 l0 -14.92 l10.5 0 l0 2.2 l-8.32 0 l0 4.52 q0.62 -0.36 1.38 -0.48 q0.56 -0.1 1.44 -0.1 l3.26 0 l0 2.22 l-3.26 0 q-0.82 0 -1.44 0.1 q-0.76 0.14 -1.38 0.48 z M113.008 20 l-10.46 0 l0 -14.92 l2.18 0 l0 12.74 l8.28 0 l0 2.18 z M137.9 20 l-10.46 0 l0 -14.92 l2.18 0 l0 12.74 l8.28 0 l0 2.18 z M154.472 20 l-2.14 0 l0 -14.92 l2.14 0 l0 14.92 z M183.484 7 l-1.4 1.64 q-0.82 -0.84 -1.96 -1.32 t-2.4 -0.48 q-1.64 0 -2.99 0.74 t-2.11 2.02 q-0.78 1.34 -0.78 2.98 q0 1.56 0.84 2.88 q0.8 1.24 2.15 1.97 t2.91 0.73 q1.1 0 2.11 -0.38 t1.81 -1.06 l0 -2.72 l-1.92 0 l-0.94 -2.16 l5.02 0 l0 5.8 q-1.14 1.28 -2.73 1.99 t-3.37 0.71 q-2.22 0 -4.08 -1.08 q-1.82 -1.04 -2.86 -2.86 q-1.08 -1.86 -1.08 -4.08 q0 -2.14 1.14 -3.94 q1.08 -1.72 2.93 -2.73 t3.97 -1.01 q1.66 0 3.16 0.64 q1.46 0.6 2.58 1.72 z M201.536 14.02 l0 3.8 l9.2 0 l0 2.18 l-11.38 0 l0 -14.92 l10.5 0 l0 2.2 l-8.32 0 l0 4.52 q0.62 -0.36 1.38 -0.48 q0.56 -0.1 1.44 -0.1 l3.26 0 l0 2.22 l-3.26 0 q-0.82 0 -1.44 0.1 q-0.76 0.14 -1.38 0.48 z M226.50799999999998 7.18 l-1.74 -2.1 l2.82 0 l9.58 11.4 l0 -11.4 l2.2 0 l0 14.92 l-2.16 0 l-8.56 -10.26 l0 10.26 l-2.14 0 l0 -12.82 z M266.7 7.279999999999999 l-5.26 0 l0 12.72 l-2.12 0 l0 -12.72 l-5.32 0 l0 -2.2 l12.7 0 l0 2.2 z M310.184 15.46 q0 1.46 -0.88 2.6 q-0.86 1.08 -2.37 1.68 t-3.41 0.6 q-1.74 0 -3.38 -0.81 t-2.76 -2.25 l1.56 -1.46 q1.94 2.34 4.58 2.34 q1.16 0 2.12 -0.28 q1.06 -0.32 1.64 -0.9 q0.66 -0.64 0.66 -1.52 q0 -1.06 -0.66 -1.6 q-0.56 -0.46 -1.66 -0.6 q-0.64 -0.08 -2.1 -0.08 q-2.68 0 -4.09 -0.98 t-1.41 -2.88 q0 -1.2 0.71 -2.28 t1.95 -1.72 q1.28 -0.68 2.84 -0.68 q1.76 0 3.18 0.54 q1.52 0.58 2.82 1.82 l-1.36 1.6 q-1.22 -0.98 -2.22 -1.37 t-2.42 -0.39 q-0.82 0 -1.53 0.34 t-1.13 0.91 t-0.42 1.21 q0 1.72 3.18 1.72 q2.54 0 4.02 0.52 q1.4 0.5 2 1.52 q0.54 0.9 0.54 2.4 z M327.396 14.02 l0 3.8 l9.2 0 l0 2.18 l-11.38 0 l0 -14.92 l10.5 0 l0 2.2 l-8.32 0 l0 4.52 q0.62 -0.36 1.38 -0.48 q0.56 -0.1 1.44 -0.1 l3.26 0 l0 2.22 l-3.26 0 q-0.82 0 -1.44 0.1 q-0.76 0.14 -1.38 0.48 z M356.588 6.66 l-0.82 -1.84 l2.4 0 l7.18 15.18 l-2.44 0 l-0.98 -2.18 l-4.54 0 q-1.28 0 -2.3 0.24 q-0.9 0.22 -1.5 0.58 q-0.54 0.32 -0.72 0.66 l-0.38 0.7 l-2.36 0 z M358.188 15.620000000000001 l2.76 0 l-3.26 -6.3 l-3.3 7.14 q0.44 -0.38 1.34 -0.6 q1.02 -0.24 2.46 -0.24 z M382.16 7.26 l0 4.96 q0.62 -0.36 1.38 -0.48 q0.56 -0.1 1.44 -0.1 l2.84 0 q1.18 0 1.84 -0.54 q0.7 -0.58 0.7 -1.74 q0 -1.1 -0.74 -1.64 q-0.64 -0.46 -1.8 -0.46 l-5.66 0 z M388.54 17.64 l-1.82 -3.82 l-1.74 0 q-0.82 0 -1.44 0.1 q-0.76 0.14 -1.38 0.48 l0 5.6 l-2.18 0 l0 -14.92 l7.84 0 q1.38 0 2.44 0.52 t1.64 1.48 q0.62 1.02 0.62 2.4 q0 1.68 -0.9 2.76 t-2.54 1.5 l1.16 2.38 q0.5 0.74 0.78 1.04 q0.34 0.38 0.65 0.51 t0.81 0.13 l0.22 0 l0.48 -0.02 l0 2.22 q-1.16 0 -1.72 -0.08 q-0.94 -0.16 -1.6 -0.62 q-0.78 -0.56 -1.32 -1.66 z M421.39200000000005 7 l-1.4 1.64 q-0.82 -0.84 -1.96 -1.32 t-2.4 -0.48 q-1.64 0 -2.99 0.74 t-2.11 2.02 q-0.78 1.34 -0.78 2.98 q0 1.56 0.84 2.88 q0.8 1.24 2.15 1.97 t2.91 0.73 q1.44 0 2.68 -0.62 t2.06 -1.72 l1.34 1.82 q-1.14 1.28 -2.73 1.99 t-3.37 0.71 q-2.22 0 -4.08 -1.08 q-1.82 -1.04 -2.86 -2.86 q-1.08 -1.86 -1.08 -4.08 q0 -2.14 1.14 -3.94 q1.08 -1.72 2.93 -2.73 t3.97 -1.01 q1.66 0 3.16 0.64 q1.46 0.6 2.58 1.72 z M438.92400000000004 13.4 l0 6.6 l-2.16 0 l0 -14.92 l2.16 0 l0 6.12 q0.8 -0.4 1.9 -0.4 q0.4 0 1.94 0.18 q2.16 0.26 2.92 0.26 q1.16 0 2.02 -0.38 l0 -5.78 l2.18 0 l0 14.92 l-2.18 0 l0 -6.94 q-0.86 0.38 -2.02 0.38 q-0.76 0 -2.92 -0.26 q-1.54 -0.18 -1.94 -0.18 q-1.1 0 -1.9 0.4 z"/></g>
			</g>
		</svg>
	